<?xml version="1.0" encoding="UTF-8"?>
<svg xmlns="http://www.w3.org/2000/svg" viewBox="0 0 280 104.38">
  <defs>
    <style>
      .logo-text {
        font-family: 'Barlow Condensed', 'Arial Narrow', Arial, sans-serif;
        font-weight: 800;
        font-size: 66px;
        fill: #000;
      }
      .cls-1 { fill: #000; stroke-width: 0px; }
    </style>
  </defs>
  <!-- Circular SH emblem -->
  <path class="cls-1" d="M48.2,58.47c.77-1.37,1.46-2.72,2.17-4.07,1.37-2.62,2.68-5.21,3.92-7.73,1.95-3.96,3.82-7.72,5.84-11.22,3.67-6.37,7.85-11.84,14.06-15.86.95-.62,1.88-1.16,2.8-1.67.28-.16.56-.3.84-.44.64-.34,1.28-.66,1.9-.94.29-.13.57-.27.86-.39.67-.29,1.32-.55,1.96-.79.18-.07.38-.15.56-.22.81-.29,1.59-.54,2.35-.75.19-.05.37-.09.55-.14.53-.14,1.04-.26,1.54-.37C78.23,5.28,65.84,0,52.19,0,23.37,0,0,23.37,0,52.19c0,10.6,3.18,20.45,8.61,28.68,12.42-.62,28.83-3.16,39.59-22.39ZM34.39,63.95c-.39.02-.75.08-1.15.08-9.43,0-14.65-3.92-16.32-5.59-.72-.73-.94-1.02-.36-2.03l3.41-6.02c.58-.94,1.96-.8,2.47-.44.29.14,5.51,3.99,10.3,3.99,2.9,0,5-1.81,5-4.35,0-3.05-2.54-5.37-7.47-7.33-6.24-2.47-14.07-7.33-14.07-16.03,0-7.18,5.58-14.44,16.76-14.44,7.54,0,13.35,3.85,15.52,5.44.87.51.73,1.81.44,2.32l-3.7,5.59c-.51.8-1.81,1.45-2.47.94-.65-.36-5.95-4.35-10.37-4.35-2.61,0-4.57,1.74-4.57,3.7,0,2.68,2.17,4.72,7.91,7.04,3.97,1.58,9.54,4.26,12.53,9.12-.28.56-.55,1.1-.84,1.69-1.3,2.63-2.59,5.18-3.84,7.57l-.32.6c-.57,1.09-1.13,2.17-1.75,3.27-2.15,3.84-4.55,6.83-7.11,9.23Z"/>
  <path class="cls-1" d="M90.9,18.44c-.07,0-.13.01-.2.02-.51.07-1.06.16-1.63.28-.16.03-.32.07-.48.1-.44.1-.9.21-1.37.34-.19.05-.38.1-.58.16-.6.18-1.22.37-1.87.61-.05.02-.1.03-.16.05-.69.25-1.41.55-2.15.88-.21.09-.42.2-.64.3-.56.26-1.14.55-1.73.86-.23.12-.46.24-.7.37-.8.44-1.61.92-2.45,1.46-6.85,4.44-11.08,11.28-15.21,19.31-.96,1.86-1.91,3.77-2.89,5.75-1.91,3.88-3.89,7.89-6.21,12.04-.74,1.32-1.51,2.54-2.29,3.72-10.95,16.5-26.19,20.08-38.11,21.06,9.57,11.38,23.9,18.62,39.94,18.62,28.82,0,52.19-23.37,52.19-52.19,0-12.92-4.72-24.73-12.5-33.84-.31.03-.63.05-.97.1ZM88.78,84.85c0,.73-.65,1.38-1.38,1.38h-8.63c-.8,0-1.38-.65-1.38-1.38v-19.08h-15.64v19.08c0,.73-.58,1.38-1.38,1.38h-8.63c-.73,0-1.38-.65-1.38-1.38v-7.92c2.23-2.33,4.38-4.98,6.39-8.01,1.03-1.56,1.86-2.9,2.6-4.22,1.86-3.32,3.48-6.5,5.02-9.6h13.02v-18.28c0-.73.58-1.38,1.38-1.38h8.63c.72,0,1.38.65,1.38,1.38v48.03Z"/>
  <!-- Text "moto" -->
  <text class="logo-text" x="116" y="81">moto</text>
</svg>
