<svg xmlns="http://www.w3.org/2000/svg" xmlns:xlink="http://www.w3.org/1999/xlink" width="500" zoomAndPan="magnify" viewBox="0 0 375 374.999991" height="500" preserveAspectRatio="xMidYMid meet" version="1.2"><g id="2caa15eeec"><path style=" stroke:none;fill-rule:nonzero;fill:#ffffff;fill-opacity:1;" d="M 173.21875 210.0625 C 175.988281 205.140625 178.464844 200.289062 181.015625 195.441406 C 185.9375 186.027344 190.644531 176.722656 195.097656 167.667969 C 202.105469 153.441406 208.824219 139.933594 216.082031 127.359375 C 229.265625 104.472656 244.28125 84.824219 266.59375 70.378906 C 270.007812 68.152344 273.347656 66.210938 276.652344 64.378906 C 277.660156 63.804688 278.664062 63.300781 279.671875 62.800781 C 281.96875 61.578125 284.269531 60.429688 286.496094 59.421875 C 287.539062 58.957031 288.542969 58.453125 289.585938 58.019531 C 291.992188 56.980469 294.328125 56.046875 296.628906 55.183594 C 297.273438 54.929688 297.992188 54.644531 298.640625 54.394531 C 301.550781 53.351562 304.351562 52.453125 307.082031 51.699219 C 307.765625 51.519531 308.410156 51.375 309.058594 51.195312 C 310.960938 50.691406 312.792969 50.261719 314.589844 49.867188 C 281.105469 18.96875 236.59375 0 187.554688 0 C 84.015625 0 0.0546875 83.960938 0.0546875 187.5 C 0.0546875 225.582031 11.480469 260.96875 30.988281 290.535156 C 75.609375 288.308594 134.5625 279.183594 173.21875 210.097656 Z M 123.605469 229.75 C 122.203125 229.820312 120.910156 230.035156 119.472656 230.035156 C 85.597656 230.035156 66.84375 215.953125 60.84375 209.953125 C 58.253906 207.332031 57.464844 206.289062 59.550781 202.660156 L 71.800781 181.035156 C 73.882812 177.65625 78.839844 178.160156 80.671875 179.453125 C 81.714844 179.957031 100.46875 193.789062 117.679688 193.789062 C 128.097656 193.789062 135.640625 187.285156 135.640625 178.160156 C 135.640625 167.203125 126.515625 158.867188 108.804688 151.824219 C 86.386719 142.953125 58.253906 125.492188 58.253906 94.234375 C 58.253906 68.441406 78.300781 42.355469 118.46875 42.355469 C 145.558594 42.355469 166.429688 56.1875 174.226562 61.902344 C 177.351562 63.734375 176.847656 68.402344 175.808594 70.234375 L 162.515625 90.320312 C 160.683594 93.191406 156.011719 95.527344 153.640625 93.695312 C 151.304688 92.402344 132.265625 78.066406 116.382812 78.066406 C 107.007812 78.066406 99.964844 84.320312 99.964844 91.359375 C 99.964844 100.988281 107.761719 108.316406 128.382812 116.652344 C 142.648438 122.328125 162.65625 131.957031 173.398438 149.417969 C 172.394531 151.429688 171.425781 153.371094 170.382812 155.488281 C 165.710938 164.9375 161.078125 174.097656 156.585938 182.6875 L 155.4375 184.839844 C 153.390625 188.757812 151.378906 192.636719 149.148438 196.589844 C 141.425781 210.386719 132.804688 221.128906 123.605469 229.75 Z M 123.605469 229.75 "/><path style=" stroke:none;fill-rule:nonzero;fill:#ffffff;fill-opacity:1;" d="M 326.625 66.25 C 326.375 66.25 326.160156 66.285156 325.90625 66.320312 C 324.074219 66.570312 322.097656 66.894531 320.050781 67.324219 C 319.476562 67.433594 318.902344 67.578125 318.328125 67.683594 C 316.746094 68.042969 315.09375 68.441406 313.40625 68.90625 C 312.722656 69.085938 312.039062 69.265625 311.320312 69.480469 C 309.164062 70.128906 306.9375 70.8125 304.601562 71.671875 C 304.421875 71.746094 304.242188 71.78125 304.027344 71.851562 C 301.550781 72.75 298.960938 73.828125 296.304688 75.015625 C 295.550781 75.335938 294.796875 75.734375 294.003906 76.09375 C 291.992188 77.027344 289.910156 78.066406 287.789062 79.183594 C 286.964844 79.613281 286.136719 80.042969 285.273438 80.511719 C 282.402344 82.09375 279.492188 83.816406 276.472656 85.757812 C 251.863281 101.707031 236.667969 126.28125 221.828125 155.128906 C 218.378906 161.8125 214.964844 168.675781 211.445312 175.789062 C 204.585938 189.726562 197.46875 204.132812 189.136719 219.042969 C 186.476562 223.785156 183.710938 228.167969 180.910156 232.40625 C 141.570312 291.6875 86.816406 304.546875 43.992188 308.070312 C 78.375 348.953125 129.855469 374.964844 187.484375 374.964844 C 291.023438 374.964844 374.984375 291.003906 374.984375 187.464844 C 374.984375 141.046875 358.027344 98.617188 330.074219 65.890625 C 328.960938 65.996094 327.8125 66.070312 326.589844 66.25 Z M 319.007812 304.835938 C 319.007812 307.457031 316.675781 309.792969 314.050781 309.792969 L 283.046875 309.792969 C 280.171875 309.792969 278.089844 307.457031 278.089844 304.835938 L 278.089844 236.289062 L 221.902344 236.289062 L 221.902344 304.835938 C 221.902344 307.457031 219.816406 309.792969 216.941406 309.792969 L 185.9375 309.792969 C 183.316406 309.792969 180.980469 307.457031 180.980469 304.835938 L 180.980469 276.382812 C 188.992188 268.011719 196.714844 258.492188 203.9375 247.605469 C 207.636719 242 210.621094 237.1875 213.277344 232.445312 C 219.960938 220.515625 225.78125 209.089844 231.3125 197.953125 L 278.089844 197.953125 L 278.089844 132.28125 C 278.089844 129.660156 280.171875 127.324219 283.046875 127.324219 L 314.050781 127.324219 C 316.636719 127.324219 319.007812 129.660156 319.007812 132.28125 Z M 319.007812 304.835938 "/></g></svg>